<svg width="30" height="30" viewBox="0 0 30 30" fill="none" xmlns="http://www.w3.org/2000/svg">
<path fill-rule="evenodd" clip-rule="evenodd" d="M0 15.0001C0 6.71577 6.71574 0 15 0C23.2843 0 30 6.71577 30 15.0001C30 23.2844 23.2843 30.0001 15 30.0001C6.71574 30.0001 0 23.2844 0 15.0001ZM15 2.23606C7.95068 2.23606 2.23606 7.95071 2.23606 15.0001C2.23606 18.2612 3.45909 21.2369 5.47155 23.4929C7.59451 20.5261 11.0709 18.5898 15.0009 18.5898C18.9304 18.5898 22.4063 20.5256 24.5294 23.492C26.5414 21.2359 27.7639 18.2607 27.7639 15.0001C27.7639 7.95071 22.0493 2.23606 15 2.23606ZM22.882 25.0403C21.1817 22.4973 18.2858 20.8259 15.0009 20.8259C11.7156 20.8259 8.81948 22.4978 7.11908 25.0412C9.28917 26.7468 12.0258 27.764 15 27.764C17.9748 27.764 20.7118 26.7465 22.882 25.0403ZM9.46899 12.6581C9.46899 9.60323 11.9454 7.12678 15.0003 7.12678C18.0552 7.12678 20.5316 9.60323 20.5316 12.6581C20.5316 15.713 18.0552 18.1894 15.0003 18.1894C11.9454 18.1894 9.46899 15.713 9.46899 12.6581ZM15.0003 9.36284C13.1804 9.36284 11.7051 10.8382 11.7051 12.6581C11.7051 14.478 13.1804 15.9533 15.0003 15.9533C16.8202 15.9533 18.2956 14.478 18.2956 12.6581C18.2956 10.8382 16.8202 9.36284 15.0003 9.36284Z" fill="#454545"/>
</svg>
